# xmcd
#
# Track frame offsets:
#	150
#	21452
#	41737
#	64889
#	86266
#	111088
#	130238
#	149144
#	169433
#	184370
#	209145
#	249315
#	276056
#	297128
#	309860
#
# Disc length: 4311 seconds
#
# Revision: 1
# Processed by: cddbd v1.5.2PL0 Copyright (c) Steve Scherf et al.
# Submitted via: audiograbber 1.83.01
#
DISCID=ec10d50f
DTITLE=Various Artist - 1000% Hardcore 4
DYEAR=1900
DGENRE=Hardcore
TTITLE0=Forsaken is dead - Walking the line
TTITLE1=Intensik - Commodorize
TTITLE2=D-Version - Forget the past
TTITLE3=The vizitor and Bouncemasters - Angels
TTITLE4=Tripped - Mr. Planet
TTITLE5=The sickest squad - U5AG1
TTITLE6=Frazzbass - Throwing them bones
TTITLE7=I:Gor - Deadly Shaolin revenger
TTITLE8=Raw and Uncut - Blackhand breakz
TTITLE9=Mecanek - Right and wrong
TTITLE10=Las Vegas 909 - Welcome to hell - Worst nightmare
TTITLE11=The pain barrier - Schub (part one and two)
TTITLE12=iGoa - Ich bin angekommen
TTITLE13=Komprex - Brutallity is my reality
TTITLE14=Paranoizer - Freak
EXTD=
EXTT0=
EXTT1=
EXTT2=
EXTT3=
EXTT4=
EXTT5=
EXTT6=
EXTT7=
EXTT8=
EXTT9=
EXTT10=
EXTT11=
EXTT12=
EXTT13=
EXTT14=
PLAYORDER=
